<svg xmlns="http://www.w3.org/2000/svg" width="600" height="400" viewBox="0 0 600 400">
  <defs>
    <linearGradient id="bg" x1="0%" y1="0%" x2="100%" y2="100%">
      <stop offset="0%" stop-color="#3d2517"/>
      <stop offset="100%" stop-color="#9c6232"/>
    </linearGradient>
    <linearGradient id="steam" x1="0%" y1="100%" x2="0%" y2="0%">
      <stop offset="0%" stop-color="#f6e8d9" stop-opacity="0"/>
      <stop offset="100%" stop-color="#f6e8d9" stop-opacity="0.8"/>
    </linearGradient>
  </defs>
  <rect width="600" height="400" fill="url(#bg)"/>
  <g opacity="0.7">
    <path d="M220 120c-20 40 20 60 0 100" fill="none" stroke="url(#steam)" stroke-width="12" stroke-linecap="round"/>
    <path d="M270 120c-20 40 20 60 0 100" fill="none" stroke="url(#steam)" stroke-width="12" stroke-linecap="round"/>
    <path d="M320 120c-20 40 20 60 0 100" fill="none" stroke="url(#steam)" stroke-width="12" stroke-linecap="round"/>
  </g>
  <g transform="translate(140 150)">
    <rect x="0" y="60" width="320" height="130" rx="24" fill="#f7ede1"/>
    <rect x="20" y="20" width="280" height="160" rx="80" fill="#3d2517"/>
    <path d="M150 60c40 20 100 16 130-18 34-39 6-80-70-80-76 0-102 48-60 86z" fill="#8b5224"/>
    <text x="160" y="142" text-anchor="middle" font-family="Arial, sans-serif" font-size="28" fill="#3d2517" font-weight="700">
      Bold &amp; Beautiful
    </text>
  </g>
</svg>

