<svg xmlns="http://www.w3.org/2000/svg" width="600" height="400" viewBox="0 0 600 400">
  <defs>
    <linearGradient id="forest" x1="0%" y1="0%" x2="100%" y2="100%">
      <stop offset="0%" stop-color="#1b4332"/>
      <stop offset="100%" stop-color="#4a7c59"/>
    </linearGradient>
    <linearGradient id="bean" x1="0%" y1="0%" x2="0%" y2="100%">
      <stop offset="0%" stop-color="#3a2418"/>
      <stop offset="100%" stop-color="#8d5230"/>
    </linearGradient>
  </defs>
  <rect width="600" height="400" fill="url(#forest)"/>
  <g transform="translate(120 60)">
    <path d="M40 260c40-120 100-180 160-220s120-60 180-60-40 120-100 160-120 60-160 120z" fill="#355e3b" opacity="0.5"/>
    <ellipse cx="280" cy="210" rx="140" ry="70" fill="#f4f1ea" opacity="0.92"/>
    <g transform="translate(210 140)">
      <ellipse cx="60" cy="60" rx="60" ry="110" fill="url(#bean)"/>
      <path d="M60 -50c-12 0-24 4-24 14 0 34 24 150 24 150s24-92 24-138c0-16-8-26-24-26z" fill="#5b311e" opacity="0.65"/>
    </g>
    <text x="280" y="210" text-anchor="middle" font-family="Arial, sans-serif" font-size="34" fill="#1b4332" font-weight="700">
      Evergreen Arabica
    </text>
  </g>
</svg>

