<svg xmlns="http://www.w3.org/2000/svg" width="600" height="400" viewBox="0 0 600 400">
  <defs>
    <linearGradient id="night" x1="0%" y1="0%" x2="100%" y2="100%">
      <stop offset="0%" stop-color="#0f172a"/>
      <stop offset="100%" stop-color="#1e3a8a"/>
    </linearGradient>
    <radialGradient id="glow" cx="50%" cy="40%" r="60%">
      <stop offset="0%" stop-color="#f59e0b" stop-opacity="0.8"/>
      <stop offset="100%" stop-color="#f59e0b" stop-opacity="0"/>
    </radialGradient>
  </defs>
  <rect width="600" height="400" fill="url(#night)"/>
  <circle cx="300" cy="120" r="140" fill="url(#glow)"/>
  <g transform="translate(160 120)">
    <path d="M40 180c0-80 60-140 140-140s140 60 140 140" fill="#111827" opacity="0.85"/>
    <path d="M40 180h280c0 32-24 60-60 60H100c-36 0-60-28-60-60z" fill="#fef3c7"/>
    <path d="M160 80c-42 0-76 34-76 76v24h152v-24c0-42-34-76-76-76z" fill="#f1f5f9" opacity="0.9"/>
    <path d="M210 120c34 0 62 28 62 62v12h-44v-12c0-10-8-18-18-18z" fill="#cbd5f5"/>
    <text x="140" y="168" text-anchor="middle" font-family="Arial, sans-serif" font-size="32" fill="#f59e0b" font-weight="700">
      Specialty Reserve
    </text>
    <text x="140" y="204" text-anchor="middle" font-family="Arial, sans-serif" font-size="16" fill="#e2e8f0">
      Roast-to-order micro lots
    </text>
  </g>
</svg>

